<svg id="be6bc9be-539d-40b7-9280-55d52bf8ca1b" data-name="Layer 1" xmlns="http://www.w3.org/2000/svg" viewBox="0 0 192.76 192.76"><defs><style>.a7aa6dfc-b8fa-4a89-b88e-087af898d090{fill:#fff;}.a7aa6dfc-b8fa-4a89-b88e-087af898d090,.b9f99f45-32fe-4e84-9d19-dd36cd1e27c8{fill-rule:evenodd;}.b9f99f45-32fe-4e84-9d19-dd36cd1e27c8{fill:#231f20;}</style></defs><title>Kerastase</title><polygon class="a7aa6dfc-b8fa-4a89-b88e-087af898d090" points="0 0 192.76 0 192.76 192.76 0 192.76 0 0 0 0"/><path class="b9f99f45-32fe-4e84-9d19-dd36cd1e27c8" d="M231.1,393.2c-4.36,5.44-9,10.77-12.38,16.64a66.51,66.51,0,0,0,5.28,8.25c2.32,3.14,5,6.15,7.5,9.21-1.8.09-3.67,0-5.51,0A125.89,125.89,0,0,1,215,413c-.19.07-.12.33-.16.52-.19,4.69-.26,9.21-.69,13.81-1.47.09-3,0-4.55,0l-.12-.11a269.92,269.92,0,0,0,.36-34.15L210,393h4.59l.12.12c.26,6.16.19,12.19.28,18.3.29-.09.29-.4.5-.56a150,150,0,0,1,13.71-19.56h.17l1.75,1.94Z" transform="translate(-201 -324.89)"/><path class="b9f99f45-32fe-4e84-9d19-dd36cd1e27c8" d="M244.08,393.2a55.21,55.21,0,0,0-4.38,5.28c2.46.21,4.92.07,7.38.12.1,0,0,.14.12.16-.21.69.78,2.51-.64,2a66,66,0,0,0-8.92-.22c-.1,0,0,.15-.1.17,0,3.58,0,7.15.05,10.68,0,.1.14,0,.16.12,2.94,0,5.92.05,8.81-.05a17,17,0,0,1,.07,2l-.11.12c-2.82-.31-5.85-.12-8.77-.17,0,0-.07.07-.11.1-.07,3.52-.07,7.53,0,11.27,0,.09.14,0,.19.09a85.53,85.53,0,0,0,9.66-.45,7.49,7.49,0,0,1-.36,2.73c-4.69.19-9.09-.08-13.69,0,.41-4.62.38-9.9.45-14.59.05-.12.17-.21.12-.36l-.12-.12c0-4.49,0-9,.05-13.52,1.19-.11,2.39,0,3.41-.11,1.64-2.33,3.44-4.58,5.24-6.83h.11a17.37,17.37,0,0,1,1.38,1.5Z" transform="translate(-201 -324.89)"/><path class="b9f99f45-32fe-4e84-9d19-dd36cd1e27c8" d="M349.38,427.18c-1.51-.07-2.79.16-4.26,0-1.7-4.5-3.22-9.09-4.95-13.59h-5.73a1.49,1.49,0,0,0-.24.28c-1.53,4.4-3,8.86-4.54,13.26a10.36,10.36,0,0,1-2.73.05c3.89-10,8-19.94,11.42-30.12,3.62,10,7.2,20.15,11,30.12Z" transform="translate(-201 -324.89)"/><path class="b9f99f45-32fe-4e84-9d19-dd36cd1e27c8" d="M284.07,400.35c3.2,9,6.28,18,9.9,26.78a26,26,0,0,1-4.33.05c-1.66-4.45-3.22-9-4.83-13.48,0-.09-.14,0-.17-.11H279c-.14.11-.19.28-.29.4-1.49,4.38-2.91,8.78-4.47,13.14-.05.1-.14,0-.19.1h-6.75c-4-4.67-6.61-10-9.5-15.16,3.11-.07,6.16-1,7.84-3.81.78-1.52,1.42-3.6.57-5.28-1.63-3.2-5.56-2.51-8.74-2.51-.07,0-.12.11-.19.16-.07,9.1.19,17.53,0,26.5-1.32.1-2.72,0-4.07.05l-.12-.12c.85-9.12.48-19.32.57-28.42,3.67-.19,7.65-.11,11.41,0a6.51,6.51,0,0,1,5.19,4c.95,2.7-.26,5.5-2.27,7.46-1.54,1.45-3.51,1.8-5.4,2.32-.12,0,0,.14-.12.17a98.28,98.28,0,0,0,9.14,14.09c4.14-9.69,7.72-19.63,11.32-29.56.47,1,.76,2.18,1.18,3.25Z" transform="translate(-201 -324.89)"/><path class="b9f99f45-32fe-4e84-9d19-dd36cd1e27c8" d="M363.8,399.5c0,.92.05,2,0,2.79h-.12c-2-1.73-4-3.58-6.82-3a3.25,3.25,0,0,0-2.44,2.16c-1,4.14,3.84,6,6.25,8.45,3.84,2.82,6.23,7.13,4.83,11.84-.92,3.25-4.28,5.28-7.5,5.57a11.33,11.33,0,0,1-6.94-1.54,19.91,19.91,0,0,1,0-2.89c2.48,1.94,5.73,3.79,9,2.2,2.29-1.33,2.88-3.91,2.55-6.42-2-5.54-9.14-7.55-11-13.19A6.49,6.49,0,0,1,354.1,399a7.73,7.73,0,0,1,7.34-.93,9.91,9.91,0,0,1,2.36,1.43Z" transform="translate(-201 -324.89)"/><path class="b9f99f45-32fe-4e84-9d19-dd36cd1e27c8" d="M307.94,399.57c0,.9.05,1.84,0,2.72a9.16,9.16,0,0,1-1.43-1.14c-1.77-1.3-4-2.62-6.32-1.58a3.35,3.35,0,0,0-1.87,3.45c.17,1.83,1.94,3.15,3.25,4.39,3.52,2.91,8.47,6,8.4,11a8.07,8.07,0,0,1-3,7.1c-3.24,2.42-8.35,2.32-11.76.28-.1,0,0-.14-.12-.16V423c.47,0,.83.62,1.25.81,2.28,1.54,5.76,2.89,8.31,1,1.83-1.4,2.28-3.56,2.16-5.73-1.56-5.36-7.91-7.49-10.59-12.22-1.16-1.94-.54-4.69.57-6.42a7.46,7.46,0,0,1,7.06-2.8,10.2,10.2,0,0,1,4.14,1.95Z" transform="translate(-201 -324.89)"/><path class="b9f99f45-32fe-4e84-9d19-dd36cd1e27c8" d="M329.54,398.64a7.36,7.36,0,0,1,0,2,41.93,41.93,0,0,0-7.72-.33c-.14.05-.07.21-.17.28v26.6a30.41,30.41,0,0,1-4,0c.41-8.69.22-17.71.17-26.71-.76-.33-1.78-.07-2.6-.24-1.31,0-2.59.14-3.86.24a12.32,12.32,0,0,1,.11-1.83c.17-.11.45,0,.62-.11,5.8.3,11.6-.1,17.5.11Z" transform="translate(-201 -324.89)"/><path class="b9f99f45-32fe-4e84-9d19-dd36cd1e27c8" d="M385,398.71a19,19,0,0,1,.12,2,95.76,95.76,0,0,0-9.78-.24c-.09.07-.05.22-.12.29-.07,3.48.14,6.91.07,10.51a1.45,1.45,0,0,0,.17.19c3,.14,5.94-.05,8.93-.07.09,0,0,.14.11.17a13.45,13.45,0,0,0-.07,1.82c-1.37.14-2.65-.24-4.09-.12-1.59.14-3.3,0-4.88.12-.1.07-.1.17-.17.24.12,3.67,0,7.46.12,11.13a.48.48,0,0,0,.1.12c3.29-.05,6.53-.1,9.78-.41a9,9,0,0,1-.29,2.63c-4.55.1-9.16,0-13.76.05.24-3.48.48-7.08.48-10.75.09-5.9,0-12.08,0-17.79.05-.11.19,0,.24-.11,4.36,0,8.55,0,12.88.07l.12.11Z" transform="translate(-201 -324.89)"/><path class="a7aa6dfc-b8fa-4a89-b88e-087af898d090" d="M337.5,404.85c.66,2.22,1.42,4.43,2,6.7h-4.42c-.17-.12,0-.19,0-.33.75-2.18,1.51-4.38,2.32-6.49l.12.12Z" transform="translate(-201 -324.89)"/><path class="a7aa6dfc-b8fa-4a89-b88e-087af898d090" d="M282,405c.66,2.2,1.39,4.35,2,6.58-1.43.09-2.92.05-4.38.05a1.27,1.27,0,0,1-.12-.1c.71-2.27,1.56-4.47,2.34-6.72.12,0,.07.14.17.19Z" transform="translate(-201 -324.89)"/><path class="b9f99f45-32fe-4e84-9d19-dd36cd1e27c8" d="M379.34,433.37a8.58,8.58,0,0,1-.12,2.05c-53.37.09-108.91.05-162.94.05a6.41,6.41,0,0,1,0-2.1c55,.08,108-.07,162.9,0,0,.05.07,0,.12,0Z" transform="translate(-201 -324.89)"/><path class="b9f99f45-32fe-4e84-9d19-dd36cd1e27c8" d="M271.17,439.8c1.3,3.85,2.86,7.56,4.22,11.41a5.42,5.42,0,0,1-1.76-.13c-.43-1.6-1-3.14-1.56-4.7a1.06,1.06,0,0,0-.2-.17,9.19,9.19,0,0,0-2.41.1c-.5,1.61-1.16,3.17-1.51,4.82-.33.21-.9,0-1.26.08,1.26-3.87,3-7.56,4.35-11.41Z" transform="translate(-201 -324.89)"/><path class="b9f99f45-32fe-4e84-9d19-dd36cd1e27c8" d="M356.6,440.71a4,4,0,0,1,0,1.38c-.9-.63-1.93-1.69-3.09-1a1.33,1.33,0,0,0-.35,1.38c1.41,2,4.57,3,4.27,5.86a3,3,0,0,1-1.61,2.46,4.09,4.09,0,0,1-4.22-.3c.08-.38-.2-1,.23-1.13.93.68,2.21,1.48,3.39.73a2.2,2.2,0,0,0,.65-2.36c-1.1-2.24-5.57-3.6-3.61-6.64,1.05-1.46,3.06-1.3,4.34-.42Z" transform="translate(-201 -324.89)"/><path class="b9f99f45-32fe-4e84-9d19-dd36cd1e27c8" d="M328.22,440.23c-.15,3.64,0,7,.13,10.73-.3.53-1,0-1.51.25l-.13-.13c.08-3.59.08-7.26,0-10.85a3.84,3.84,0,0,1,1.51,0Z" transform="translate(-201 -324.89)"/><path class="b9f99f45-32fe-4e84-9d19-dd36cd1e27c8" d="M245.09,441.69a3.48,3.48,0,0,1-.73,3.71,5.61,5.61,0,0,1-3.85,1l-.12.12v4.65c-.48,0-.93.1-1.46.05,0-3.54.13-7.36-.1-10.91,0-.05.08-.07.1-.12,2.16.27,5-.81,6.16,1.46Z" transform="translate(-201 -324.89)"/><path class="b9f99f45-32fe-4e84-9d19-dd36cd1e27c8" d="M304,441.69a3,3,0,0,1-.18,2.63,4,4,0,0,1-2.34,1.51c-.12.1-.07.28,0,.38,1.06,1.66,2.31,3.27,3.37,4.92a5.8,5.8,0,0,1-1.86,0c-1.06-1.68-2.46-3.26-3.44-5-.18-.07-.18.13-.25.18.1,1.66.05,3.27.07,4.9h-1.46c0-3.59.05-7.44-.05-11,2.14.27,4.93-.78,6.14,1.46Z" transform="translate(-201 -324.89)"/><path class="a7aa6dfc-b8fa-4a89-b88e-087af898d090" d="M302.45,442a2.32,2.32,0,0,1-.13,2.28,3.21,3.21,0,0,1-2.84.83l-.1-.1c-.07-1.28.13-2.49.05-3.69a3.53,3.53,0,0,1,2.11,0,2.42,2.42,0,0,1,.91.68Z" transform="translate(-201 -324.89)"/><path class="a7aa6dfc-b8fa-4a89-b88e-087af898d090" d="M243.58,442.16a3.34,3.34,0,0,1-.23,2.47,2.91,2.91,0,0,1-2.84.77c0-1.4-.17-2.56-.12-4,.1-.05,0-.15.12-.2,1.16,0,2.49-.12,3.07,1Z" transform="translate(-201 -324.89)"/><path class="a7aa6dfc-b8fa-4a89-b88e-087af898d090" d="M270.79,443.07a6.22,6.22,0,0,1,.6,1.81c-.37,0-1.4.35-1.25-.3a5.3,5.3,0,0,1,.65-1.51Z" transform="translate(-201 -324.89)"/></svg>