<svg viewBox="0 0 192.701 192.701"><path d="M29.641 96.345l74.54-75.61c4.704-4.74 4.704-12.439 0-17.179-4.704-4.74-12.319-4.74-17.011 0l-82.997 84.2c-4.511 4.559-4.535 12.608 0 17.191l83.009 84.2a11.952 11.952 0 0017.011 0c4.704-4.74 4.704-12.439 0-17.179L29.641 96.345z"/><path d="M113.853 96.345l74.54-75.61c4.704-4.74 4.704-12.439 0-17.179-4.704-4.74-12.319-4.74-17.011 0l-82.997 84.2c-4.511 4.559-4.535 12.608 0 17.191l82.997 84.2c4.704 4.74 12.319 4.74 17.011 0 4.704-4.74 4.704-12.439 0-17.179l-74.54-75.623z"/></svg>