<svg xmlns="http://www.w3.org/2000/svg" viewBox="0 0 133.78 32.92"><defs><style>.f4bcbcaa-0bd7-4dce-b888-51546a0534dc{fill:#231f20;}</style></defs><title>loreal_paris_professional [Converted]</title><path class="f4bcbcaa-0bd7-4dce-b888-51546a0534dc" d="M37.23,27.73a2.38,2.38,0,1,0,0,4.75,2.38,2.38,0,1,0,0-4.75Zm56.05,0a2.38,2.38,0,1,0,2.44,2.38A2.26,2.26,0,0,0,93.28,27.73Zm-64.8,1.18c0-.75-.74-1-1.79-1H24.14v2h2.55C27.74,29.88,28.48,29.66,28.48,28.91ZM9,25.81v8.47H142.59V25.81Zm7.51,4.71h-3v2.42H12.3V27.27h4.25c1,0,2.23.4,2.23,1.64S17.56,30.52,16.46,30.52Zm12.16,2.42-2.3-2.4H24.14v2.4H23V27.27h3.85c1.34,0,2.74.34,2.74,1.64,0,.72-.49,1.42-2,1.58L30,32.94Zm8.61.15c-2.12,0-3.42-1.21-3.42-3s1.3-3,3.42-3,3.43,1.21,3.43,3S39.36,33.09,37.23,33.09ZM50,27.92H45.65v1.69h4v.66h-4v2.67H44.53V27.27H50Zm10.93,5h-6.1V27.27h6v.65H55.93v1.76h4.23v.65H55.93v2h5Zm6,.1a8.29,8.29,0,0,1-1.74-.23l.12-.76a7,7,0,0,0,1.76.28c.7,0,1.67-.26,1.67-.92,0-1.27-3.65-.92-3.65-2.68,0-1,1.19-1.54,2.73-1.54a8.71,8.71,0,0,1,1.8.2l-.16.75a5.49,5.49,0,0,0-1.6-.24c-.68,0-1.48.17-1.48.76,0,1.09,3.65.83,3.65,2.7C70,32.56,68.57,33,66.87,33Zm9.32,0a8.29,8.29,0,0,1-1.74-.23l.12-.76a7.14,7.14,0,0,0,1.77.28c.69,0,1.66-.26,1.66-.92,0-1.27-3.64-.92-3.64-2.68,0-1,1.19-1.54,2.72-1.54a8.72,8.72,0,0,1,1.81.2l-.17.75a5.43,5.43,0,0,0-1.59-.24c-.68,0-1.49.17-1.49.76,0,1.09,3.65.83,3.65,2.7C79.29,32.56,77.89,33,76.19,33Zm9-.1H84.09V27.27h1.12Zm8.07.15c-2.13,0-3.43-1.21-3.43-3s1.3-3,3.43-3,3.42,1.21,3.42,3S95.4,33.09,93.28,33.09Zm14-.15h-1.12l-4.52-4.47h0v4.47h-1.05V27.27h1.14l4.51,4.48h0V27.27h1.05Zm11.61,0h-1.12l-4.52-4.47h0v4.47h-1V27.27h1.14l4.5,4.48h0V27.27h1.05Zm11,0h-6.1V27.27h6v.65h-4.86v1.76h4.22v.65h-4.22v2h5Zm9.76,0h-5.36V27.27h1.12v5h4.24Zm-123.47-5H13.42v1.95H16c1,0,1.62-.29,1.62-1S17.22,27.92,16.18,27.92Z" transform="translate(-8.95 -1.36)"/><path class="f4bcbcaa-0bd7-4dce-b888-51546a0534dc" d="M113.28,4.53h-3.79l-9.9,18.09H103L105.48,18h11.66l2.55,4.64h3.38Zm-6.51,11.1,4.59-8.55,4.55,8.55Z" transform="translate(-8.95 -1.36)"/><polygon class="f4bcbcaa-0bd7-4dce-b888-51546a0534dc" points="0 3.17 0 21.27 17.5 21.27 17.5 19.3 2.69 19.3 2.69 3.18 0 3.17"/><polygon class="f4bcbcaa-0bd7-4dce-b888-51546a0534dc" points="15.27 3.18 12.49 9.58 14.49 9.58 18.16 3.18 15.27 3.18"/><path class="f4bcbcaa-0bd7-4dce-b888-51546a0534dc" d="M41.42,1.36c-6.61,0-12.94,4.76-12.94,11.39S34,24.1,41.42,24.1c8.85,0,13.29-5.9,13.29-11.36C54.71,7,50.07,1.36,41.42,1.36Zm0,20.48c-5,0-9.68-3.77-9.68-9.1,0-5.86,5.56-9.12,9.68-9.1,7,0,10.17,5.21,10.17,9.1C51.59,17.42,47.09,21.84,41.42,21.84Z" transform="translate(-8.95 -1.36)"/><path class="f4bcbcaa-0bd7-4dce-b888-51546a0534dc" d="M71.28,15s4.78-1.28,4.78-5.3c0-5.28-6-5.2-6-5.2H57.05V22.62h2.72V15h8l5.91,7.58h3.41Zm-2-2.18H59.75V6.68h9.58s3.76-.08,3.76,3C73.09,13.06,69.33,12.86,69.33,12.86Z" transform="translate(-8.95 -1.36)"/><polygon class="f4bcbcaa-0bd7-4dce-b888-51546a0534dc" points="116.26 3.17 116.26 21.27 133.65 21.27 133.65 19.3 118.96 19.3 118.96 3.17 116.26 3.17"/><polygon class="f4bcbcaa-0bd7-4dce-b888-51546a0534dc" points="71.19 3.18 71.19 21.26 88.26 21.26 88.26 19.27 74.11 19.27 74.11 13.01 84.77 13.01 84.77 10.94 74.11 10.94 74.11 5.15 88.27 5.15 88.27 3.18 71.19 3.18"/><path class="f4bcbcaa-0bd7-4dce-b888-51546a0534dc" d="M130.07,17.92h.46c.19,0,.31,0,.37.13a.27.27,0,0,1,.07.18c0,.14-.09.3-.4.3h-.5Zm0,1.73v-.8h.58a.68.68,0,0,0,.76-.63.56.56,0,0,0-.31-.5,1,1,0,0,0-.5-.1h-.95v2Z" transform="translate(-8.95 -1.36)"/><path class="f4bcbcaa-0bd7-4dce-b888-51546a0534dc" d="M133,18.87l.34-.91.34.91Zm.64-1.25h-.51l-.78,2h.36l.18-.48h.9l.19.48h.45Z" transform="translate(-8.95 -1.36)"/><path class="f4bcbcaa-0bd7-4dce-b888-51546a0534dc" d="M136.21,17.91h.56c.3,0,.41.14.41.3s-.24.31-.45.31h-.52Zm1.4,1.74-.41-.89a.57.57,0,0,0,.42-.55.52.52,0,0,0-.21-.43.87.87,0,0,0-.61-.16h-1v2h.42v-.83h.59l.37.83Z" transform="translate(-8.95 -1.36)"/><path class="f4bcbcaa-0bd7-4dce-b888-51546a0534dc" d="M139.09,19.65v-2h.43v2Z" transform="translate(-8.95 -1.36)"/><path class="f4bcbcaa-0bd7-4dce-b888-51546a0534dc" d="M141.25,19.09a.34.34,0,0,0,.27.26,1.11,1.11,0,0,0,.29,0c.39,0,.47-.18.47-.27s-.19-.24-.29-.27l-.52-.11a.57.57,0,0,1-.51-.54c0-.39.36-.61.83-.61a1.16,1.16,0,0,1,.64.17.47.47,0,0,1,.2.27l-.4.08c0-.07-.1-.23-.43-.23s-.41.15-.41.26.21.21.33.24l.4.08c.2.05.6.15.6.59s-.39.63-.93.63a1.29,1.29,0,0,1-.72-.19.64.64,0,0,1-.23-.33Z" transform="translate(-8.95 -1.36)"/><polygon points="80.09 0.24 84.84 0.24 77.85 2.58 80.09 0.24"/></svg>