<svg id="bcf7d02a-6035-434e-9bce-1d885b81ebfa" data-name="Layer 1" xmlns="http://www.w3.org/2000/svg" viewBox="0 0 192.76 192.76"><defs><style>.e196586f-1b32-4621-854c-ce6ad4f9614b{fill:#fff;}.afcb16ee-c446-484f-b62f-0ba1ad6da972,.e196586f-1b32-4621-854c-ce6ad4f9614b{fill-rule:evenodd;}.afcb16ee-c446-484f-b62f-0ba1ad6da972{fill:#231f20;}</style></defs><title>OPI</title><polygon class="e196586f-1b32-4621-854c-ce6ad4f9614b" points="0 0 192.76 0 192.76 192.76 0 192.76 0 0 0 0"/><path class="afcb16ee-c446-484f-b62f-0ba1ad6da972" d="M342.93,425.67a4.4,4.4,0,1,0-4.4-4.4,4.4,4.4,0,0,0,4.4,4.4Z" transform="translate(-200 -324.89)"/><path class="afcb16ee-c446-484f-b62f-0ba1ad6da972" d="M270.77,425.67a4.4,4.4,0,1,0-4.4-4.4,4.4,4.4,0,0,0,4.4,4.4Z" transform="translate(-200 -324.89)"/><path class="afcb16ee-c446-484f-b62f-0ba1ad6da972" d="M231.72,394.05c12.82,0,23.21,12.19,23.21,27.22s-10.39,27.21-23.21,27.21S208.5,436.3,208.5,421.27s10.4-27.22,23.22-27.22Zm0,2.44a12.61,12.61,0,0,0-12.61,12.61v24.34a12.61,12.61,0,0,0,25.21,0V409.1a12.61,12.61,0,0,0-12.6-12.61Z" transform="translate(-200 -324.89)"/><polygon class="afcb16ee-c446-484f-b62f-0ba1ad6da972" points="159.63 70.34 159.63 72.32 166.99 72.32 166.99 119.87 159.63 119.87 159.63 121.85 184.25 121.85 184.25 119.87 176.89 119.87 176.89 72.32 184.25 72.32 184.25 70.34 159.63 70.34 159.63 70.34"/><path class="afcb16ee-c446-484f-b62f-0ba1ad6da972" d="M296.81,421.13H307c6.61,0,8.56-5.36,8.56-12s-1.95-12-8.56-12H296.81v23.92Zm0,23.63h7.35v2H279.54v-2h7.36V397.21h-7.36v-2l31,0c7.71,0,15.66,6.25,15.66,14s-7.95,14-15.66,14H296.81v21.63Z" transform="translate(-200 -324.89)"/></svg>