<svg id="a45c22f5-b504-4b07-bb23-151f95d26202" data-name="Layer 1" xmlns="http://www.w3.org/2000/svg" viewBox="0 0 47.94 65.03"><defs><style>.ab3ef9e4-2aa6-444d-9d48-5aadc6756f22,.e5ba00ea-22d8-4a85-a06c-85cae49e0fd9{fill:#696a6d;}.ab3ef9e4-2aa6-444d-9d48-5aadc6756f22{fill-rule:evenodd;}</style></defs><title>SP logo</title><path class="e5ba00ea-22d8-4a85-a06c-85cae49e0fd9" d="M420.16,291.44c2.16,7.15-.77,14.55-5.18,16.75l.15.3a16.22,16.22,0,0,0,9-14.1c0-4.94-3.26-10.69-4-13.2-1.82-6.23-.53-13,2.91-16l-.26-.4a17,17,0,0,0-6.58,13.44c0,5.63,3.51,11.6,4,13.2Z" transform="translate(-397.06 -264.8)"/><path class="ab3ef9e4-2aa6-444d-9d48-5aadc6756f22" d="M429.77,283.78c2.27,1.81,3.68,5.59,3.68,10a14.32,14.32,0,0,1-3.68,9.87V283.78Zm0,23.87v14h-3.11V279.19c5.87,0,9.91,6.49,9.91,14.51,0,6.24-3.19,11.79-6.8,13.95Z" transform="translate(-397.06 -264.8)"/><path class="e5ba00ea-22d8-4a85-a06c-85cae49e0fd9" d="M401,316.66a1.64,1.64,0,0,0-1.86-1.85,1.73,1.73,0,0,0-1.94,1.83c0,2.44,3.13,1.35,3.13,3.23a1.11,1.11,0,0,1-1.15,1.17c-1.2,0-1.25-.8-1.25-1.54h-.82c0,1.41.46,2.21,2,2.21a1.86,1.86,0,0,0,2.06-2c0-2.43-3.13-1.31-3.13-3.18a1,1,0,0,1,1.1-1.08c.78,0,1,.48,1,1.18Z" transform="translate(-397.06 -264.8)"/><path class="e5ba00ea-22d8-4a85-a06c-85cae49e0fd9" d="M403.4,321.68l-.15.44a.6.6,0,0,1-.61.48,2.77,2.77,0,0,1-.46,0v.62c.13,0,.26,0,.57,0,.94,0,1.14-.61,1.33-1.3l1.44-5.32h-.85l-.88,4h0l-1-4h-.86l1.47,5.09Z" transform="translate(-397.06 -264.8)"/><path class="e5ba00ea-22d8-4a85-a06c-85cae49e0fd9" d="M409.46,318.06c0-.59-.07-1.59-1.52-1.59-.86,0-1.59.44-1.59,1.37s.63,1.21,1.23,1.41,1.22.35,1.22,1a.78.78,0,0,1-.83.82c-.76,0-.93-.54-.93-1.15h-.78a1.53,1.53,0,0,0,1.71,1.77,1.46,1.46,0,0,0,1.61-1.56c0-1-.62-1.2-1.22-1.41s-1.23-.31-1.23-.9a.72.72,0,0,1,.81-.76c.57,0,.74.34.74,1Z" transform="translate(-397.06 -264.8)"/><path class="e5ba00ea-22d8-4a85-a06c-85cae49e0fd9" d="M411,316.59h-.72v.62H411v3.44c0,.65.2,1,1,1a3.34,3.34,0,0,0,.63-.05v-.64l-.35,0c-.41,0-.51-.15-.51-.55v-3.2h.87v-.62h-.87v-1.44H411v1.44Z" transform="translate(-397.06 -264.8)"/><path class="ab3ef9e4-2aa6-444d-9d48-5aadc6756f22" d="M414.24,318.57v-.19c0-.3.09-1.3.91-1.3s.87.66.87,1.22v.27Zm2.59.61v-.32c0-1.07-.14-2.39-1.66-2.39s-1.77,1.44-1.77,2.68c0,1.71.51,2.56,1.72,2.56a1.69,1.69,0,0,0,1.68-1.77H416c0,.37-.11,1.15-.85,1.15-1,0-1-1.15-1-1.91Z" transform="translate(-397.06 -264.8)"/><path class="e5ba00ea-22d8-4a85-a06c-85cae49e0fd9" d="M418.18,321.58H419v-3.44a.92.92,0,0,1,.93-1c.64,0,.67.63.67,1v3.44h.78v-3.44a.92.92,0,0,1,.93-1c.64,0,.67.63.67,1v3.44h.78v-3.53c0-.59,0-1.58-1.31-1.58a1.37,1.37,0,0,0-1.18.79,1,1,0,0,0-1.08-.79,1.35,1.35,0,0,0-1.21.71h0v-.59h-.74v5Z" transform="translate(-397.06 -264.8)"/><path class="ab3ef9e4-2aa6-444d-9d48-5aadc6756f22" d="M397.24,329.71h1.34v-2.65h.71a1.86,1.86,0,0,0,2.11-2,1.76,1.76,0,0,0-1.82-2h-2.34v6.64Zm1.34-5.66h.55c.67,0,.93.37.93,1s-.36,1-.89,1h-.59v-2Z" transform="translate(-397.06 -264.8)"/><path class="e5ba00ea-22d8-4a85-a06c-85cae49e0fd9" d="M402.29,329.71h1.28v-3a.87.87,0,0,1,.95-.9l.4,0v-1.23l-.23,0a1.3,1.3,0,0,0-1.15.8h0v-.67h-1.23v5Z" transform="translate(-397.06 -264.8)"/><path class="ab3ef9e4-2aa6-444d-9d48-5aadc6756f22" d="M405.49,327.2c0,1.74.43,2.66,2,2.63s2-.91,2-2.63-.43-2.66-2-2.63-2,.92-2,2.63Zm1.28,0c0-1,.06-1.75.69-1.75s.69.51.69,1.75S408,329,407.46,329s-.69-.73-.69-1.76Z" transform="translate(-397.06 -264.8)"/><path class="e5ba00ea-22d8-4a85-a06c-85cae49e0fd9" d="M410.67,329.71H412v-4.13h.74v-.88H412v-.43c0-.29.13-.4.49-.4h.25V323l-.68,0c-.83,0-1.34.3-1.34,1.2v.56H410v.88h.65v4.13Z" transform="translate(-397.06 -264.8)"/><path class="ab3ef9e4-2aa6-444d-9d48-5aadc6756f22" d="M417,327.4v-.29c0-1.53-.33-2.54-1.82-2.54-1.73,0-2,1.25-2,2.59s.07,2.67,1.93,2.67A1.64,1.64,0,0,0,417,328h-1.15c-.08.62-.25.94-.68.94s-.63-.58-.63-1.16v-.4Zm-2.53-.76v-.2c0-.46.15-1,.66-1s.62.43.65,1.19Z" transform="translate(-397.06 -264.8)"/><path class="e5ba00ea-22d8-4a85-a06c-85cae49e0fd9" d="M417.78,328.07v.18c0,.95.4,1.58,1.83,1.58,1.08,0,1.86-.51,1.86-1.57a1.34,1.34,0,0,0-1.1-1.43l-.77-.26c-.43-.14-.56-.34-.56-.58a.54.54,0,0,1,.6-.54c.42,0,.57.25.57.75h1.15V326c0-.91-.55-1.43-1.71-1.43-1.32,0-1.84.68-1.84,1.51a1.38,1.38,0,0,0,1.07,1.39l.9.33a.58.58,0,0,1,.46.57.56.56,0,0,1-.64.59.64.64,0,0,1-.67-.72v-.17Z" transform="translate(-397.06 -264.8)"/><path class="e5ba00ea-22d8-4a85-a06c-85cae49e0fd9" d="M422.17,328.07v.18c0,.95.4,1.58,1.84,1.58,1.08,0,1.86-.51,1.86-1.57a1.34,1.34,0,0,0-1.11-1.43l-.77-.26c-.43-.14-.56-.34-.56-.58a.54.54,0,0,1,.61-.54c.42,0,.56.25.56.75h1.15V326c0-.91-.54-1.43-1.7-1.43-1.32,0-1.84.68-1.84,1.51a1.37,1.37,0,0,0,1.07,1.39l.9.33a.58.58,0,0,1,.46.57c0,.4-.26.59-.65.59a.64.64,0,0,1-.67-.72v-.17Z" transform="translate(-397.06 -264.8)"/><path class="ab3ef9e4-2aa6-444d-9d48-5aadc6756f22" d="M426.83,329.71h1.28v-5h-1.28v5Zm0-5.62h1.28V323h-1.28v1.1Z" transform="translate(-397.06 -264.8)"/><path class="ab3ef9e4-2aa6-444d-9d48-5aadc6756f22" d="M429.12,327.2c0,1.74.43,2.66,2,2.63s2-.91,2-2.63-.42-2.66-2-2.63-2,.92-2,2.63Zm1.28,0c0-1,.06-1.75.69-1.75s.68.51.68,1.75-.16,1.76-.68,1.76-.69-.73-.69-1.76Z" transform="translate(-397.06 -264.8)"/><path class="e5ba00ea-22d8-4a85-a06c-85cae49e0fd9" d="M434,329.71h1.28v-3.32c0-.56.24-.83.68-.83s.54.19.54.7v3.45h1.28V326c0-1-.47-1.43-1.27-1.43a1.39,1.39,0,0,0-1.27.72h0v-.59H434v5Z" transform="translate(-397.06 -264.8)"/><path class="ab3ef9e4-2aa6-444d-9d48-5aadc6756f22" d="M440.08,326.24v-.14a.57.57,0,0,1,.59-.65.53.53,0,0,1,.6.61c0,.34-.13.48-.51.59l-.73.19c-.88.24-1.26.62-1.26,1.56,0,.67.32,1.43,1.21,1.43a1.22,1.22,0,0,0,1.27-.65h0a2,2,0,0,0,.15.53h1.23a2.07,2.07,0,0,1-.16-1v-2.63c0-.9-.29-1.54-1.81-1.54-1,0-1.75.39-1.75,1.55v.12Zm1.19,1.95a.76.76,0,0,1-.79.77c-.35,0-.48-.31-.48-.7s.2-.69.72-.8a1.7,1.7,0,0,0,.55-.26v1Z" transform="translate(-397.06 -264.8)"/><polygon class="e5ba00ea-22d8-4a85-a06c-85cae49e0fd9" points="46.66 64.9 47.94 64.9 47.94 58.27 46.66 58.27 46.66 64.9 46.66 64.9"/></svg>