<svg id="b66995e3-d20e-4839-a23b-ea50efc170c2" data-name="Layer 1" xmlns="http://www.w3.org/2000/svg" viewBox="0 0 192.76 192.76"><defs><style>.e8e9d07d-c949-4220-8163-53689a4979f9{fill:#fff;}.a0da0bd3-f716-41ae-a5be-2da85f283f46,.e8e9d07d-c949-4220-8163-53689a4979f9{fill-rule:evenodd;}.a0da0bd3-f716-41ae-a5be-2da85f283f46{fill:#231f20;}</style></defs><title>technique</title><polygon class="e8e9d07d-c949-4220-8163-53689a4979f9" points="0 0 192.76 0 192.76 192.76 0 192.76 0 0 0 0"/><path class="a0da0bd3-f716-41ae-a5be-2da85f283f46" d="M234.31,387.65H221.66V372.94h39.52v14.71H247.91v37.28H373.09V458H234.63l-.32-70.35ZM358,451.18h9.34v-3.6h-6.12V443h5.86v-3.6h-5.86v-4.61h6.12v-3.6H358v20Zm-14.94-20v12.48c0,2.09.14,3.93,1.41,5.58a5.32,5.32,0,0,0,9-.16,8.88,8.88,0,0,0,1.28-5.42V431.17h-3.23v12.48a6.1,6.1,0,0,1-.47,3,2.4,2.4,0,0,1-4.49-.3,6.47,6.47,0,0,1-.33-2.71V431.17Zm-17.29,9.89a7.3,7.3,0,0,1,1.71-4.53,5.72,5.72,0,0,1,4.33-2.13c3.32,0,6,3.14,6,7a6.69,6.69,0,0,1-1.41,4.31,13.67,13.67,0,0,0-3.08-2.38,9,9,0,0,0-5-1.49,7.61,7.61,0,0,0-2.45.35l0-1.08Zm8.32,6.36a4.18,4.18,0,0,1-2,.65,5.89,5.89,0,0,1-5.27-2.95,3.62,3.62,0,0,1,1.6-.33c2.07,0,4,1.25,5.64,2.63Zm7.23.92h-.52a3.89,3.89,0,0,1-1.86-.54,10.25,10.25,0,0,0,2.07-6.5c0-6-4.28-10.51-9.32-10.51a8.75,8.75,0,0,0-6.58,3.12,10.9,10.9,0,0,0-2.57,7.39c0,5.87,4.26,10.37,9.27,10.37a8.93,8.93,0,0,0,5-1.52,6.45,6.45,0,0,0,4.52,1.52v-3.33Zm-24.41,2.84h3.22v-20h-3.22v20Zm-17.29,0h3.22V436.62l7.3,14.56h3.57v-20H310.5v14.62l-7.25-14.62h-3.62v20Zm-15.88,0H287v-8.39h6.21v8.39h3.22v-20h-3.22v8H287v-8h-3.23v20ZM278,445.74a5.69,5.69,0,0,1-4.38,2.33c-3.1,0-5.74-3.22-5.74-6.77,0-3.74,2.54-6.9,5.72-6.9a5.76,5.76,0,0,1,4.56,2.49h3.67a9,9,0,0,0-8.26-6.1c-4.84,0-8.91,4.72-8.91,10.37s4,10.51,9,10.51a8.85,8.85,0,0,0,8.07-5.93Zm-24.58,5.44h9.34v-3.6h-6.12V443h5.86v-3.6h-5.86v-4.61h6.12v-3.6h-9.34v20Z" transform="translate(-201 -324.89)"/></svg>