<svg id="a63b0f68-bee4-445b-943f-3bab286fd3c3" data-name="Layer 1" xmlns="http://www.w3.org/2000/svg" viewBox="0 0 538.33 504"><defs><style>.a117131a-df09-46f7-84d7-7ecbe7e7a13b,.e7ec36d0-d7b2-4ab5-b462-f18773aba039{fill:#ed1c24;}.e7ec36d0-d7b2-4ab5-b462-f18773aba039{fill-rule:evenodd;}</style></defs><title>Wella_Professional</title><path class="e7ec36d0-d7b2-4ab5-b462-f18773aba039" d="M203.09,271.11c10.65-3.35,21,.23,29.86,4.15,10.12,4.48,19.13,9.78,27.81,14.73,52.29,32.32,87.79,44.33,129.75,37C411,323,429.85,315.13,448.65,307.1l44-20.41c19.6-8.23,44.69-17.81,66.29-7.23,11.11,5.71,13.66,17.35,13,29.12a12.78,12.78,0,0,1-.21,1.36,2.33,2.33,0,0,1-1.26,1.79,2.44,2.44,0,0,1-2.5-.58,22.43,22.43,0,0,0-6.51-3.78c-20.61-8.78-42.4,1.94-61,9L475,327.64l-30.32,13.18c-31.84,14.32-69.91,22.42-107,14.12-27.37-5.88-48.87-22.22-72.72-40.61-22.82-17.57-39.23-32.18-62.64-39.09-2.8-.82-2.55-3.31.8-4.13Z" transform="translate(-39.74 -144)"/><path class="e7ec36d0-d7b2-4ab5-b462-f18773aba039" d="M137.43,337.06c-16.41.22-37.12,1-58.4,1.31-8.83.14-35.89,1.54-32-16,1.4-6.37,5.62-9.64,5.57-13.19-.05-4.5-8.51-9.88-5.18-14,1.9-2.33,8.9-3.78,8.58-5.57-.55-3.13-11.21-3.15-11.26-7.37-.05-3.6,7.45-6.75,7.74-12.51.19-3.71-12.56-5.38-12.7-13.14-.1-5.44,19.81-14.48,27.41-24.38,3.15-4.09.84-8.95,1.94-14.57,3.16-16.17,15-20.65,21-29.72,5.18-7.75,4.2-13.37,11-21.21,15.93-18.43,40-23.55,64.85-22.61,34.52,2.68,61.76,23.09,91.74,36.93,32.78,14.46,63.88,33,103.23,31.58,28.91-.34,53.59-10.83,78.35-21.34l30.37-13.46c20.41-8.49,45.14-16.59,66.49-14.59,11.48,1.08,27.38,6,33.32,19.69a40.33,40.33,0,0,1,2.72,18.25,6.08,6.08,0,0,1-.17,1.35,2.82,2.82,0,0,1-.87,1.66,1.81,1.81,0,0,1-1.8.32c-2.23-.81-25.38-30.5-90.71.29-20,9.44-51.53,23.76-51.53,23.76C401.63,240.46,371,246.62,341,240.72c-21.21-4.55-40.82-13.11-60-22.47,0,0-45.72-21.93-74.54-36.73-32-16.44-68.91-17.21-90.63,0-7.84,6.23-8.65,17.69-12.05,21.93-3.23,4-16.17,13.62-14.54,25.53,2.44,17.84-26.13,24.25-25.4,30.92.46,4.31,9,5.52,9.88,9.49.78,3.43-3.81,5.67-3.71,8.52.13,3.21,9.61,4.11,9.61,6.8,0,2.88-6.62,3.56-7,6.6-.39,2.69,5.13,5.51,5.13,8,0,5.13-5.45,5.78-5.83,12-.46,7.24,9.93,7.11,18.65,7.07,13.94-.05,33-2,46.32-2.22,18.26-.32,34.29,5.27,42.55,19.61,11.93,20.73,5.73,46.55-3,61.23-3.95,6.63-8.06,7.74-7.69-1.35.38-9.61,3.32-33.07-4.53-46.08s-15.16-12.69-26.66-12.54Z" transform="translate(-39.74 -144)"/><path class="e7ec36d0-d7b2-4ab5-b462-f18773aba039" d="M177.73,199.68c18.85-.65,40.47,11.69,57.22,20.84l47.71,26.35C317.19,265.48,360,278.59,401.5,266c13.45-3.68,26.1-9.23,38.86-14.58l41.57-18.94c22.74-9.5,52.57-21,77.2-7.57,10.83,6.63,13.75,20,12.37,31.33-.19,1.45-.87,3.11-2,3.21-2.38.19-6-3.74-10-6-23.44-13.22-51.52-2.27-72.66,7.37l-34.18,16.05c-35.67,18-78.36,32.93-121,20.08-18.07-5.23-34.6-14.25-50.84-23.89L230,239.46c-21.28-13.32-41.68-31.79-69.53-26.31-3.72.74-13.51,3.2-11.58-1,4.41-9.73,21.39-12.19,28.83-12.45Z" transform="translate(-39.74 -144)"/><path class="e7ec36d0-d7b2-4ab5-b462-f18773aba039" d="M311,536.87a8.09,8.09,0,0,1-8.26-7.85,7.8,7.8,0,0,1,.67-3.23l46.86-117.34c3.88-9.73,10.61-12.74,17.09-12.74h18.49L337.05,518.89h39l-4.51,12.54a8.41,8.41,0,0,1-7.93,5.44Z" transform="translate(-39.74 -144)"/><path class="e7ec36d0-d7b2-4ab5-b462-f18773aba039" d="M157.36,493.06l33.75-85.93c2.79-7.08,6-11.4,12.54-11.4h12.74L163.82,529.29c-1.33,3.36-5.44,7.58-10.29,7.58h-23l-8.17-109.33L77.13,530.37c-1.48,3.35-6,6.5-8.75,6.5H40.17V395.75H59.72c12.85,0,11.21,17.86,11.21,17.86V494l37.58-85.71c2.19-5,3.73-12.47,15.66-12.56h23.64l9.55,97.31Z" transform="translate(-39.74 -144)"/><path class="e7ec36d0-d7b2-4ab5-b462-f18773aba039" d="M395.28,536.87A8.09,8.09,0,0,1,387,529a7.8,7.8,0,0,1,.67-3.23l46.86-117.34c3.88-9.73,10.62-12.74,17.09-12.74h18.5L421.29,518.89h39l-4.52,12.54a8.41,8.41,0,0,1-7.93,5.44Z" transform="translate(-39.74 -144)"/><path class="e7ec36d0-d7b2-4ab5-b462-f18773aba039" d="M327.65,395.71S325,403,323.29,407.54c-.9,2.56-4.8,5.14-8.1,5.42H275.76L259.2,454.25H302s-2.54,7-4.24,11.55a8.07,8.07,0,0,1-8.05,5.39H252.86L234,518.41h55.65s-2.89,8.52-4.78,13a9.3,9.3,0,0,1-7.92,5.44H207.78a8.25,8.25,0,0,1-8.45-8.12,8.73,8.73,0,0,1,.72-3.15l46.42-117.15c3.86-9.75,10.61-12.74,17.11-12.74Z" transform="translate(-39.74 -144)"/><path class="e7ec36d0-d7b2-4ab5-b462-f18773aba039" d="M512.71,483.37l-9.09,17.33h38.07l0,24.6c0,9.91,4,11.5,12.77,11.5H572v-141H550.85c-1.38,0-10.76-.72-17.94,12.63l-69.2,128.47,16.44,0a8.05,8.05,0,0,0,7.14-4.56l54.47-104.54v55.72l-29-.06Z" transform="translate(-39.74 -144)"/><path class="a117131a-df09-46f7-84d7-7ecbe7e7a13b" d="M49.15,646.12l-.43.59q-3.61,0-8.09.25l-.46-.58q.24-11.31.24-19.28V616.68q-.07-18.09-.67-29.84l.35-.58h1.83c.9,0,1.94,0,3.13-.09l3-.08,5-.09.36,0c.35,0,.93,0,1.73,0,6.09,0,10.36.92,12.84,2.77a4.72,4.72,0,0,1,.5.32l.21.13A13.48,13.48,0,0,1,73,593.91a21,21,0,0,1,2.48,10.4,19.27,19.27,0,0,1-4.53,12.8,17.27,17.27,0,0,1-9.71,5.68,40.7,40.7,0,0,1-9.24,1h-.9c-.85,0-1.67,0-2.49-.09q0,2.85.29,14c.08,3.32.16,6.15.28,8.49Zm-.57-29.4H50.2a36.88,36.88,0,0,0,8.89-.82,10.24,10.24,0,0,0,6.9-5.74,13.2,13.2,0,0,0,1.15-5.81,12.58,12.58,0,0,0-2-7.47,8.54,8.54,0,0,0-3.88-3.06,17.82,17.82,0,0,0-6.22-.88H53.4c-2,0-3.59.11-4.82.25,0,2.67-.06,5.67-.06,9v5.9c0,3.21,0,6.09.06,8.64Zm43.52,29.4-.43.59q-3.63,0-8.09.25l-.47-.58.08-3.23c.16-7.95.24-15.21.24-21.82q0-12-.17-20c-.05-2.63-.25-7.49-.58-14.54l.43-.58h3l6.26-.17h7.59c4.67,0,8.49,1,11.48,3q6.27,4.13,6.28,13.62,0,8.52-6,13.39a20.48,20.48,0,0,1-6.55,3.42,22.9,22.9,0,0,0,1.33,2.13,10.08,10.08,0,0,0,.54,1l.54.87q1.25,2.1,3,5.11l1.58,2.71.82,1.43.91,1.5q2.55,4.24,6.47,10.24l1,1.5-.35.84q-4.36,0-9.06.33l-.52-.33q-2.16-4.51-6-11c-.71-1.23-1.63-2.86-2.72-4.88-1.28-2.3-2-3.69-2.35-4.19l-.78-1.42a2.29,2.29,0,0,1-.3-.46q-.24-.42-.75-1.26c-.17-.28-.35-.55-.54-.84a7.41,7.41,0,0,1-.4-.67c-.28-.41-.52-.77-.71-1.08-1.42,0-2.5,0-3.24.08H91.52c0,4.56.12,9.29.22,14.22l.11,6,0,1.34c0,.67.09,1.25.1,1.75.05.82.08,1.4.11,1.76ZM91.46,614h1.4l.32,0a5.53,5.53,0,0,0,.83,0h.68c5.28,0,9.06-1,11.37-2.88a9.63,9.63,0,0,0,3.45-7.82,14.63,14.63,0,0,0-.21-2.34,8.76,8.76,0,0,0-1.48-3.9,1.8,1.8,0,0,0-.25-.33.76.76,0,0,0-.19-.21.61.61,0,0,0-.09-.16,7.59,7.59,0,0,0-4.44-2.85,24,24,0,0,0-6.07-.59c-1,0-2.78.06-5.32.17q-.08,3.48-.07,7.7v5.18q0,4.42.07,7.94Zm57.22-29a22.73,22.73,0,0,1,9,1.71,17,17,0,0,1,4.71,2.8l.19.17q10,8.65,10,27.13,0,16.4-7.87,24.71Q158.58,648,148.61,648a21.75,21.75,0,0,1-13.16-4q-10.72-7.87-10.72-27.14,0-15.61,7.27-24.37c4.18-5,9.76-7.52,16.68-7.52Zm.08,7.11q-7.74,0-11.69,7.15a28.18,28.18,0,0,0-2.92,9.7,51.08,51.08,0,0,0-.57,7.22,45.84,45.84,0,0,0,1.61,12.59,18.79,18.79,0,0,0,4.29,8,12.92,12.92,0,0,0,16.11,2.17,14.62,14.62,0,0,0,1.26-1,14.83,14.83,0,0,0,1.9-2,.23.23,0,0,1,.07-.13s0-.07.08-.12a39,39,0,0,0,3-6,44,44,0,0,0,1.87-13.22,48.3,48.3,0,0,0-1.55-12.75,18.33,18.33,0,0,0-4-7.65,12.37,12.37,0,0,0-9.52-4Zm42.18,54-.36.59q-3.84,0-8.52.25l-.36-.58.07-2.43q.25-7.32.29-16.52.08-7.3.08-13.16v-5.56q0-13.47-.3-18.53l0-1.08c-.08-1-.11-1.78-.11-2.26l.36-.58h4.18c1.81,0,4.31,0,7.47,0l3.6-.05h3.95l5.26-.08,5.22-.09.35.59c-.19,2.78-.33,5-.43,6.78l-.43.58q-8.05-.3-16.15-.38l-4.57-.05q-.15,7.85-.14,12.35v6.93c6.68-.09,12.79-.23,18.27-.41l.36.5c-.1,1.78-.21,3.33-.32,4.68l-.11,1.3-.07.87-.43.58q-10.73-.24-17.56-.33c0,.67,0,1.46,0,2.39s0,1.52,0,1.75v.67c0,2,0,4.78.11,8.41v1.08l0,1.13,0,1v.93q.07,5.57.32,8.82Zm57.63,0-.54.59q-6.63,0-15.32.08l-5.54,0-5.83.09-4,0-.36-.58q.36-10.71.36-27.19V615.1q0-9.57-.5-28.26l.5-.58,4,0,5.86-.05,5.61,0,5.59,0,5.89,0,4,0,.39.59c-.23,2.57-.39,4.79-.46,6.69l-.51.59-2.8-.09q-10.06-.3-19.21-.33c-.09,5.77-.14,10.26-.14,13.5v4.72h6.62q6.36,0,14.13-.25l.43.58q-.31,3.86-.43,6.69l-.43.59c-6.49-.17-12.21-.24-17.16-.24h-3.16c0,1.05-.06,2.84-.11,5.35l0,2.67c0,1.89,0,3,0,3.22,0,.47,0,1.91,0,4.34,0,2.12.05,3.75.07,4.89h3.09q8.28,0,19.89-.41l.36.58c-.15,1.84-.23,4-.28,6.44Zm6.39-1.88-.21-.63.08-1,.1-1.51c.12-1.56.23-3.34.33-5.35l.82-.33a19.25,19.25,0,0,0,12.8,5,13.68,13.68,0,0,0,5-.8,8.68,8.68,0,0,0,4.43-3.47,9.74,9.74,0,0,0,1.48-5.31,9,9,0,0,0-1.84-5.69v0l0-.05v0l0,0h0a12.73,12.73,0,0,0-3.8-3,19.76,19.76,0,0,0-2.91-1.43l-.51-.21L267,618.45a5.66,5.66,0,0,1-.54-.3l-.58-.28c-3.81-2.1-6.5-4.24-8.09-6.45a16.48,16.48,0,0,1-3-9.91q0-8.19,5.54-12.71c3.14-2.55,7.23-3.84,12.27-3.84a30.61,30.61,0,0,1,11.54,2.13l.76.3a8.25,8.25,0,0,1,.89.41l.43.59c-.25,2.45-.45,5-.57,7.56l-.64.43c-4.3-2.71-8.31-4.07-12.06-4.07a12,12,0,0,0-6.54,1.68,7.45,7.45,0,0,0-3.53,6.72,7.91,7.91,0,0,0,3.71,6.7,46.33,46.33,0,0,0,5.71,3.18l3.78,1.88q6.27,3.13,8.78,6.14a16.72,16.72,0,0,1,3.67,11.09,18,18,0,0,1-4.86,12.91q-5.14,5.4-14.2,5.39a30.72,30.72,0,0,1-13.59-3.31,5.59,5.59,0,0,1-.88-.45Zm39.93,0-.21-.63.07-1,.1-1.51c.12-1.56.23-3.34.33-5.35l.82-.33a19.26,19.26,0,0,0,12.81,5,13.68,13.68,0,0,0,5-.8,8.72,8.72,0,0,0,4.43-3.47,9.82,9.82,0,0,0,1.47-5.31,8.91,8.91,0,0,0-1.84-5.69v0l0-.05v0l0,0h0a12.77,12.77,0,0,0-3.81-3,18.81,18.81,0,0,0-2.91-1.43l-.5-.21-3.67-1.87a4.6,4.6,0,0,1-.54-.3l-.58-.28c-3.82-2.1-6.51-4.24-8.09-6.45a16.48,16.48,0,0,1-3-9.91q0-8.19,5.54-12.71c3.14-2.55,7.23-3.84,12.26-3.84A30.58,30.58,0,0,1,324,587.09l.76.3a8.22,8.22,0,0,1,.9.41l.43.59c-.26,2.45-.46,5-.58,7.56l-.64.43q-6.43-4.07-12.05-4.07a12,12,0,0,0-6.55,1.68,7.47,7.47,0,0,0-3.52,6.72,7.91,7.91,0,0,0,3.71,6.7,45.57,45.57,0,0,0,5.71,3.18l3.78,1.88q6.25,3.13,8.78,6.14a16.72,16.72,0,0,1,3.67,11.09,18,18,0,0,1-4.87,12.91q-5.13,5.4-14.2,5.39a30.75,30.75,0,0,1-13.59-3.31,5.48,5.48,0,0,1-.87-.45ZM346,646.12l-.51.59c-2.47,0-5.19,0-8.2.25l-.43-.58c.27-5.81.39-12.47.39-20q0-1.25,0-9.86l0-4.31v-4.68l0-1.88v-1.8c-.08-6.43-.19-10.86-.33-13.26,0-.74-.07-1.52-.1-2.34,0-.15-.05-.62-.08-1.37l.43-.58q3.06,0,8.2-.34l.43.67q-.07,4.3-.22,9.16-.12,6.11-.13,13.37v4.72q0,18.55.64,32.28ZM379,585a22.68,22.68,0,0,1,9,1.71,17.19,17.19,0,0,1,4.72,2.8l.18.17q10,8.65,10,27.13,0,16.4-7.87,24.71Q388.84,648,378.87,648a21.77,21.77,0,0,1-13.16-4Q355,636.12,355,616.85q0-15.61,7.27-24.37Q368.54,585,379,585Zm.07,7.11q-7.74,0-11.69,7.15a28.62,28.62,0,0,0-2.92,9.7,51,51,0,0,0-.56,7.22,46.24,46.24,0,0,0,1.6,12.59,18.79,18.79,0,0,0,4.29,8,12.94,12.94,0,0,0,16.12,2.17,14.31,14.31,0,0,0,1.25-1,14.11,14.11,0,0,0,1.9-2s0-.07.08-.13a.19.19,0,0,1,.07-.12,38.47,38.47,0,0,0,3.06-6,44.37,44.37,0,0,0,1.86-13.22,48.32,48.32,0,0,0-1.54-12.75,18.45,18.45,0,0,0-4-7.65,12.41,12.41,0,0,0-9.53-4Zm74.35,54-.37.59q-4,0-9.06.25l-.61-.58q-6.61-13.89-8.09-16.81c-.75-1.54-1.45-3-2.13-4.36-.91-1.87-1.86-3.79-2.87-5.8l-11.65-24.16.75,29.38.11,3.42.07,3.19.08,3,.09,3.29c.08,3.36.18,6.21.3,8.58l-.37.59q-3.22,0-7.16.25l-.43-.58c.18-6.72.27-11.73.3-15,.05-2,.07-4.2.07-6.66v-4.85q0-15.21-.15-21.1c-.14-5.29-.22-8.33-.22-9.12s0-1.57,0-2.3l0-.5.37-.58c2.64-.06,5.79-.14,9.49-.26l.83.59c.38.87.87,1.9,1.48,3.09.95,2.06,2,4.27,3.13,6.61l1,2.17.64,1.34.72,1.46.65,1.42.68,1.39,1.23,2.58c1.89,4,3.69,7.75,5.39,11.22l9.13,18.63-.6-28.34c-.05-2.39-.1-5-.15-7.82-.05-1.67-.12-4-.22-6.89l0-.84q-.09-2.94-.24-5.77l.43-.58c2.11,0,4.44-.06,7-.26l.44.59v1.62q0,1-.11,7.15,0,2.8-.11,14.3v7.15l0,4.61v3q0,9.42.19,18.06l.07,3.6Zm51-.17-.3.67c-3.17.09-6,.17-8.56.26l-.5-.59q-1.85-8-2.48-10.54c-.27-1.06-.53-2.12-.8-3.17l-.39-1.56L491,629.4l-.3-1.09-1.1,0c-3.75-.12-6.43-.17-8.07-.17s-4.34,0-8.09.17l-1.08,0q-2.08,8-4.34,17.64l-.51.58q-3.39.09-7.58.26l-.3-.58c.63-2.16,1.23-4.19,1.81-6.11l.85-2.88.94-3.19,1.65-5.5,1.51-5.11,1.52-5.1,1.58-5.52.54-1.75.47-1.67q3.74-12.68,5.79-20.37l.5-2.17.61-.58c3.11-.06,6.61-.14,10.5-.26l.54.59.36,1.47,1,3.75.9,3.44.9,3.47,1,3.71c1.05,4.05,2.17,8.13,3.33,12.25q3.51,13,6.84,25l.21.79c.47,1.63.89,3.17,1.27,4.65l.22.83ZM489,621.38l-7.06-28.86-7.72,28.86c1,0,2.17,0,3.66,0h1.84l1.87,0,1.84,0h1.86c1.49,0,2.73,0,3.71,0Zm49.56,24.74-.36.59c-4.08,0-8.77,0-14.1.08l-5.11,0-5.32.09L510,647l-.44-.58q.26-10,.3-16.14.08-4.82.07-10.79v-5.76q0-15.62-.5-26.85l.43-.58c1.51,0,2.93-.07,4.27-.13l1.52,0,1.61,0,1.08,0,.43.5c-.11,2.74-.21,6-.28,9.71q-.19,4.92-.26,11.87l0,1.67v1.75c0,3.36-.07,6.71-.07,10.08v7.23c0,3.8.05,7.28.14,10.46h7.8q1.44,0,12.38-.43l.43.67c-.17,2-.28,4.16-.36,6.61Zm6-1.88-.21-.63.07-1,.1-1.51c.12-1.56.23-3.34.33-5.35l.82-.33a19.26,19.26,0,0,0,12.81,5,13.68,13.68,0,0,0,5-.8,8.76,8.76,0,0,0,4.43-3.47,9.82,9.82,0,0,0,1.47-5.31,8.91,8.91,0,0,0-1.84-5.69v0l0-.05v0l0,0h0a12.6,12.6,0,0,0-3.8-3,18.81,18.81,0,0,0-2.91-1.43l-.5-.21-3.68-1.87-.54-.3-.57-.28c-3.82-2.1-6.51-4.24-8.09-6.45a16.41,16.41,0,0,1-3-9.91q0-8.19,5.53-12.71c3.15-2.55,7.23-3.84,12.27-3.84a30.58,30.58,0,0,1,11.54,2.13l.76.3a8.22,8.22,0,0,1,.9.41l.43.59c-.26,2.45-.46,5-.58,7.56l-.64.43c-4.3-2.71-8.31-4.07-12.06-4.07a12,12,0,0,0-6.54,1.68,7.47,7.47,0,0,0-3.52,6.72,7.9,7.9,0,0,0,3.7,6.7,47.11,47.11,0,0,0,5.71,3.18l3.79,1.88q6.25,3.13,8.77,6.14a16.67,16.67,0,0,1,3.67,11.09,18,18,0,0,1-4.86,12.91Q568.07,648,559,648a30.75,30.75,0,0,1-13.59-3.31,5.48,5.48,0,0,1-.87-.45Z" transform="translate(-39.74 -144)"/></svg>